<svg xmlns="http://www.w3.org/2000/svg" width="27.176" height="21.491" viewBox="0 0 27.176 21.491"><defs><style>.a{fill:#376baa;}</style></defs><g transform="translate(0 0)"><path class="a" d="M27.176,2.543a11.37,11.37,0,0,1-3.2.855,5.479,5.479,0,0,0,2.45-3,11.426,11.426,0,0,1-3.542,1.318A5.631,5.631,0,0,0,18.814,0a5.5,5.5,0,0,0-5.575,5.426,5.305,5.305,0,0,0,.144,1.237A15.974,15.974,0,0,1,1.893.992,5.278,5.278,0,0,0,1.139,3.72,5.389,5.389,0,0,0,3.619,8.237a5.691,5.691,0,0,1-2.525-.681v.068a5.472,5.472,0,0,0,4.471,5.322,5.791,5.791,0,0,1-1.469.19,5.492,5.492,0,0,1-1.049-.1A5.561,5.561,0,0,0,8.253,16.8a11.38,11.38,0,0,1-6.924,2.32A12.167,12.167,0,0,1,0,19.049a16.071,16.071,0,0,0,8.545,2.442A15.534,15.534,0,0,0,24.407,6.049l-.019-.7A10.976,10.976,0,0,0,27.176,2.543Z"/></g></svg>