<svg xmlns="http://www.w3.org/2000/svg" width="16.712" height="16.712" viewBox="0 0 16.712 16.712"><defs><style>.a{fill:#376baa;stroke:#376baa;stroke-width:0.4px;}</style></defs><g transform="translate(0.2 0.2)"><path class="a" d="M11.574,0H4.738A4.744,4.744,0,0,0,0,4.738v6.835a4.744,4.744,0,0,0,4.738,4.738h6.835a4.744,4.744,0,0,0,4.738-4.738V4.738A4.744,4.744,0,0,0,11.574,0Zm3.464,11.573a3.468,3.468,0,0,1-3.464,3.464H4.738a3.468,3.468,0,0,1-3.464-3.464V4.738A3.468,3.468,0,0,1,4.738,1.274h6.835a3.468,3.468,0,0,1,3.464,3.464Z"/><g transform="translate(3.759 3.759)"><path class="a" d="M122.4,118a4.4,4.4,0,1,0,4.4,4.4A4.4,4.4,0,0,0,122.4,118Zm0,7.519a3.122,3.122,0,1,1,3.122-3.122A3.126,3.126,0,0,1,122.4,125.519Z" transform="translate(-118 -118)"/></g><g transform="translate(11.979 3.058)"><ellipse class="a" cx="0.637" cy="0.637" rx="0.637" ry="0.637"/></g></g></svg>